HIERARCHY
ROOT Hips
{
	OFFSET 0.000000 8.830580 0.000000
	CHANNELS 6 Xposition Yposition Zposition Zrotation Yrotation Xrotation 
	JOINT Spine
	{
		OFFSET 0.000000 0.010000 0.000000
		CHANNELS 3 Zrotation Yrotation Xrotation
		JOINT Spine1
		{
			OFFSET 0.000000 2.459130 0.000000
			CHANNELS 3 Zrotation Yrotation Xrotation
			JOINT Neck
			{
				OFFSET 0.000000 2.484630 0.000000
				CHANNELS 3 Zrotation Yrotation Xrotation
				JOINT Head_virtual
				{
					OFFSET 0.000000 0.000000 0.000000
					CHANNELS 3 Zrotation Yrotation Xrotation
					JOINT Head
					{
						OFFSET 0.000000 0.927525 0.000000
						CHANNELS 3 Zrotation Yrotation Xrotation
						End Site
						{
							OFFSET 0.000000 0.000000 0.000000
						}
					}
				}
				JOINT LeftUpArm_virtual
				{
					OFFSET 0.000000 0.000000 0.000000
					CHANNELS 3 Zrotation Yrotation Xrotation
					JOINT LeftUpArm
					{
						OFFSET 1.248820 0.000000 0.000000
						CHANNELS 3 Zrotation Yrotation Xrotation
						JOINT LeftForeArm
						{
							OFFSET 2.597580 0.000000 0.000000
							CHANNELS 3 Zrotation Yrotation Xrotation
							JOINT LeftHand
							{
								OFFSET 2.455420 0.000000 0.000000
								CHANNELS 3 Zrotation Yrotation Xrotation
								End Site
								{
									OFFSET 0.000000 0.000000 0.000000
								}
							}
						}
					}
				}
				JOINT RightUpArm_virtual
				{
					OFFSET -0.000000 -0.000000 -0.000000
					CHANNELS 3 Zrotation Yrotation Xrotation
					JOINT RightUpArm
					{
						OFFSET -1.248820 -0.000000 -0.000000
						CHANNELS 3 Zrotation Yrotation Xrotation
						JOINT RightForeArm
						{
							OFFSET -2.597580 -0.000000 -0.000000
							CHANNELS 3 Zrotation Yrotation Xrotation
							JOINT RightHand
							{
								OFFSET -2.455420 -0.000000 -0.000000
								CHANNELS 3 Zrotation Yrotation Xrotation
								End Site
								{
									OFFSET 0.000000 0.000000 0.000000
								}
							}
						}
					}
				}
			}
		}
	}
	JOINT LeftUpLeg
	{
		OFFSET 1.271939 0.000000 0.000000
		CHANNELS 3 Zrotation Yrotation Xrotation
		JOINT LeftLowLeg
		{
			OFFSET 0.000000 -4.342910 0.000000
			CHANNELS 3 Zrotation Yrotation Xrotation
			JOINT LeftFoot
			{
				OFFSET 0.000000 -4.487670 0.000000
				CHANNELS 3 Zrotation Yrotation Xrotation
				JOINT LeftToeBase
				{
					OFFSET 0.000000 0.000000 1.515070
					CHANNELS 3 Zrotation Yrotation Xrotation
					End Site
					{
						OFFSET 0.000000 0.000000 0.000000
					}
				}
			}
		}
	}
	JOINT RightUpLeg
	{
		OFFSET -1.271939 0.000000 0.000000
		CHANNELS 3 Zrotation Yrotation Xrotation
		JOINT RightLowLeg
		{
			OFFSET 0.000000 -4.342910 0.000000
			CHANNELS 3 Zrotation Yrotation Xrotation
			JOINT RightFoot
			{
				OFFSET 0.000000 -4.487670 0.000000
				CHANNELS 3 Zrotation Yrotation Xrotation
				JOINT RightToeBase
				{
					OFFSET 0.000000 0.000000 1.515070
					CHANNELS 3 Zrotation Yrotation Xrotation
					End Site
					{
						OFFSET 0.000000 0.000000 0.000000
					}
				}
			}
		}
	}
}
MOTION
Frames: 14
Frame Time: 0.041667
-15.234426 8.949716 26.567929 -178.725026 -28.628700 -144.244978 9.667420 -1.226640 33.490289 -1.531428 5.554361 38.758951 0.000000 0.000000 0.000000 21.499366 -35.133768 6.674943 -23.212061 21.158915 -119.824719 -4.887660 1.091030 -37.736000 -55.658298 -66.564102 -1.409100 0.000000 -52.145302 0.000000 33.267502 9.327740 6.984780 19.469101 2.800030 -6.849200 -84.829399 60.329498 -68.428009 0.000000 7.128400 0.000000 -33.020901 -3.531030 40.342999 6.873106 -6.533736 -44.406781 0.000000 0.000000 1.273740 -9.869907 4.702119 8.203569 0.000000 0.000000 -9.438000 -0.841607 8.271259 -52.663370 0.000000 0.000000 26.576099 9.434300 -16.930203 -1.329322 0.000000 0.000000 -18.390840 
-15.233639 8.949733 26.566827 -178.696550 -28.819202 -144.351078 9.728361 -1.359392 33.565497 -1.825493 5.436788 38.552722 0.000000 0.000000 0.000000 21.359830 -35.109740 6.772963 -23.461194 21.006789 -120.106960 -4.884900 1.147320 -37.610199 -55.307701 -66.641098 -1.366640 0.000000 -52.363602 0.000000 33.311798 9.245740 7.352600 19.577700 2.867540 -6.920300 -81.459999 59.889400 -66.251007 0.000000 6.705200 0.000000 -33.268700 -4.704320 40.628799 6.991081 -6.667176 -44.358478 0.000000 0.000000 1.280350 -9.883464 4.705384 8.227149 0.000000 0.000000 -9.420450 -0.738189 8.192221 -52.560822 0.000000 0.000000 26.616800 9.544768 -16.968100 -1.418043 0.000000 0.000000 -18.265630 
-15.233241 8.949754 26.565927 -178.657678 -29.046282 -144.461111 9.831632 -1.562901 33.631078 -2.240043 5.284202 38.318982 0.000000 0.000000 0.000000 21.128150 -34.993770 6.849205 -23.739498 20.866858 -120.356200 -4.858370 1.232010 -37.478600 -54.787201 -66.678497 -1.489430 0.000000 -52.538601 0.000000 33.165600 9.258200 6.614710 19.813499 3.136570 -6.851590 -78.255997 59.268501 -64.546997 0.000000 6.441710 0.000000 -33.448299 -5.764000 41.262501 7.168987 -6.859152 -44.320616 0.000000 0.000000 1.282910 -9.851963 4.756226 8.251682 0.000000 0.000000 -9.406710 -0.588080 8.067559 -52.436749 0.000000 0.000000 26.620501 9.491562 -16.994706 -1.386873 0.000000 0.000000 -18.422700 
-15.232814 8.949805 26.564725 -178.614360 -29.214868 -144.567639 9.854455 -1.693164 33.661456 -2.470800 5.152049 38.115984 0.000000 0.000000 0.000000 20.686113 -34.747292 6.929629 -23.693868 20.671773 -120.432719 -4.901710 1.135730 -37.319401 -53.950199 -66.624298 -1.901760 0.000000 -52.629200 0.000000 33.215099 9.221270 6.675380 20.141199 3.453880 -6.168750 -75.770302 57.976601 -63.290009 0.000000 6.184380 0.000000 -33.433601 -7.397420 40.166199 7.438274 -7.125742 -44.214711 0.000000 0.000000 1.145850 -9.869780 4.955932 8.291686 0.000000 0.000000 -9.393050 -0.472778 7.996781 -52.325358 0.000000 0.000000 26.626301 9.522841 -16.978975 -1.407041 0.000000 0.000000 -18.264060 
-15.232465 8.950057 26.563325 -178.569603 -29.345074 -144.668161 9.862203 -1.775186 33.672119 -2.725685 5.035753 38.001491 0.000000 0.000000 0.000000 20.666067 -34.714457 6.696288 -24.021868 20.636738 -120.662394 -4.895120 1.201550 -37.209202 -53.571899 -66.665100 -2.023670 0.000000 -52.608398 0.000000 33.466999 9.148480 7.406190 20.450500 3.668470 -5.770140 -73.586601 56.969200 -62.951996 0.000000 6.113860 0.000000 -33.374901 -9.216790 38.145000 7.569887 -7.238803 -44.108636 0.000000 0.000000 1.048870 -9.876137 4.992959 8.335213 0.000000 0.000000 -9.429320 -0.386867 7.962398 -52.220229 0.000000 0.000000 26.620800 9.633195 -17.060907 -1.456300 0.000000 0.000000 -18.615130 
-15.232443 8.951014 26.561329 -178.505637 -29.445086 -144.805697 9.871822 -1.825824 33.665071 -2.882810 4.968840 37.908081 0.000000 0.000000 0.000000 20.518541 -34.644123 6.496925 -24.134458 20.542556 -120.766268 -4.933400 1.065950 -36.962700 -52.868000 -66.708801 -2.547100 0.000000 -52.502701 0.000000 33.243900 9.142820 6.865740 20.551201 3.788140 -5.547600 -71.466698 56.267300 -63.177002 0.000000 6.074200 0.000000 -33.420601 -11.044200 35.042900 7.719950 -7.353833 -43.961071 0.000000 0.000000 0.930696 -9.861521 5.079138 8.389850 0.000000 0.000000 -9.361090 -0.284988 7.945373 -52.072663 0.000000 0.000000 26.582600 9.501206 -17.091116 -1.367189 0.000000 0.000000 -18.403350 
-15.232426 8.952278 26.560034 -178.461950 -29.505700 -144.873859 9.882118 -1.859270 33.608447 -3.134528 4.893227 37.785415 0.000000 0.000000 0.000000 20.478308 -34.552125 6.232089 -24.277931 20.567431 -120.835151 -5.007260 0.995017 -36.580799 -52.072399 -66.937202 -3.127900 0.000000 -52.281700 0.000000 33.424801 9.220380 7.707110 20.669100 3.921970 -5.373720 -69.518898 55.708801 -63.901001 0.000000 6.198010 0.000000 -33.441502 -12.634800 31.562300 7.958835 -7.576269 -43.910277 0.000000 0.000000 0.878445 -9.844137 5.347567 8.385276 0.000000 0.000000 -9.280920 -0.273516 7.998665 -52.018643 0.000000 0.000000 26.583200 9.488219 -17.197440 -1.329761 0.000000 0.000000 -18.568650 
-15.231697 8.953716 26.559137 -178.410269 -29.534819 -144.931754 9.913800 -1.859932 33.550216 -3.421440 4.843461 37.596274 0.000000 0.000000 0.000000 20.366627 -34.372635 6.020714 -24.287435 20.612721 -120.838391 -5.050020 0.865297 -36.372700 -51.512798 -66.936798 -3.373900 0.000000 -51.992802 0.000000 33.501301 9.113970 7.805770 20.883801 4.150520 -5.196310 -67.753799 55.167099 -64.757996 0.000000 6.484010 0.000000 -32.908401 -14.049500 28.457300 7.953560 -7.518751 -43.910163 0.000000 0.000000 0.938597 -9.685508 5.320693 8.401881 0.000000 0.000000 -9.204600 -0.209604 7.984857 -51.949188 0.000000 0.000000 26.527800 9.537869 -17.109869 -1.281526 0.000000 0.000000 -18.408320 
-15.230781 8.954812 26.558438 -178.352778 -29.505777 -145.053712 9.919376 -1.810608 33.501832 -3.617727 4.825316 37.466973 0.000000 0.000000 0.000000 20.460133 -34.419898 5.624452 -24.478970 20.639420 -120.889295 -5.146410 0.604268 -35.873901 -50.372601 -67.142303 -4.200330 0.000000 -51.658401 0.000000 33.635601 9.012500 8.328670 21.080601 4.296390 -4.934860 -66.594803 54.743301 -66.424011 0.000000 6.643610 0.000000 -32.325600 -15.127100 25.176600 8.181459 -7.698879 -43.803104 0.000000 0.000000 0.904832 -9.938049 5.548590 8.273836 0.000000 0.000000 -8.902090 -0.161362 8.034986 -51.812538 0.000000 0.000000 26.434000 9.683182 -17.049463 -1.202244 0.000000 0.000000 -18.607400 
-15.229372 8.956012 26.558039 -178.299439 -29.439742 -145.176799 9.901170 -1.712957 33.403682 -3.784483 4.831639 37.376774 0.000000 0.000000 0.000000 20.623579 -34.406277 5.054806 -24.612867 20.796171 -120.824609 -5.378410 0.191314 -35.122002 -48.437199 -67.570900 -5.502390 0.000000 -51.227100 0.000000 33.790798 9.071630 8.412550 21.108900 4.481290 -4.892060 -65.054497 54.488701 -67.187012 0.000000 7.230760 0.000000 -31.108299 -16.636900 21.084900 7.801573 -7.248044 -43.663585 0.000000 0.000000 0.932802 -9.792598 5.135431 8.390442 0.000000 0.000000 -8.977420 -0.110555 8.085668 -51.658842 0.000000 0.000000 26.309401 9.433198 -17.140008 -1.103201 0.000000 0.000000 -18.445460 
-15.227929 8.958055 26.556943 -178.239618 -29.371673 -145.340676 9.884844 -1.602770 33.279711 -3.885543 4.871606 37.330484 0.000000 0.000000 0.000000 20.965137 -34.559112 4.472991 -24.767515 20.947646 -120.787210 -5.602630 -0.244887 -34.552200 -46.907200 -67.821800 -6.368000 0.000000 -50.731201 0.000000 34.040298 8.834840 9.198660 20.972401 4.604160 -5.175930 -63.260899 54.676102 -68.066010 0.000000 7.962120 0.000000 -29.381001 -17.638700 16.944599 7.729606 -7.109326 -43.463053 0.000000 0.000000 0.868738 -9.752988 5.069566 8.447877 0.000000 0.000000 -8.948710 -0.091773 8.199479 -51.421271 0.000000 0.000000 26.088200 9.361065 -17.221124 -1.001712 0.000000 0.000000 -18.424560 
-15.226428 8.960894 26.556949 -178.154126 -29.290185 -145.522803 9.945614 -1.539289 33.190324 -4.227435 4.874621 37.122096 0.000000 0.000000 0.000000 21.160682 -34.466541 3.825265 -24.776190 21.236014 -120.542200 -5.816020 -0.573189 -33.782600 -45.134300 -68.162598 -7.366890 0.000000 -50.152802 0.000000 34.353901 8.536650 10.509800 20.871599 4.797160 -5.454720 -61.342400 55.124199 -68.901001 0.000000 8.836410 0.000000 -27.150900 -18.219500 12.761300 7.523455 -6.801305 -43.325211 0.000000 0.000000 0.961129 -9.705841 4.808537 8.485987 0.000000 0.000000 -8.963880 -0.090799 8.367697 -51.165168 0.000000 0.000000 25.817600 9.259449 -17.353429 -0.844125 0.000000 0.000000 -18.419980 
-15.224573 8.964070 26.556955 -178.067697 -29.159499 -145.733820 9.944840 -1.395465 33.069265 -4.402831 4.919195 36.950984 0.000000 0.000000 0.000000 21.633627 -34.572240 2.861922 -24.855125 21.592392 -120.221037 -6.109870 -0.891916 -32.956200 -43.449699 -68.588600 -8.074620 0.000000 -49.463699 0.000000 34.579102 8.734980 10.367600 20.593700 4.783850 -6.255610 -59.016201 56.238998 -69.376007 0.000000 9.778220 0.000000 -24.588400 -18.308001 8.960870 7.365470 -6.534472 -43.167852 0.000000 0.000000 1.079060 -9.560941 4.669208 8.518590 0.000000 0.000000 -9.010810 -0.111230 8.571126 -50.883524 0.000000 0.000000 25.537300 9.198060 -17.438491 -0.666745 0.000000 0.000000 -18.420140 
-15.222992 8.966665 26.557561 -177.998224 -28.996914 -145.860878 9.950432 -1.237882 32.869339 -4.686715 4.945627 36.624603 0.000000 0.000000 0.000000 22.195232 -34.671635 1.943553 -24.908464 21.997140 -119.938670 -6.707000 -1.355350 -31.175301 -39.132401 -69.536598 -10.445300 0.000000 -48.728401 0.000000 35.193802 9.250190 10.145700 20.343100 4.819000 -7.096430 -56.317902 57.597301 -69.088013 0.000000 10.816300 0.000000 -21.897600 -18.037901 5.796100 6.941746 -5.986189 -43.094921 0.000000 0.000000 1.258180 -9.451707 4.217185 8.549541 0.000000 0.000000 -9.030620 -0.139943 8.744720 -50.702286 0.000000 0.000000 25.296301 9.273433 -17.392072 -0.502159 0.000000 0.000000 -18.531890 
